<?xml version="1.0" standalone="no"?>
<!DOCTYPE svg PUBLIC "-//W3C//DTD SVG 20010904//EN"
 "http://www.w3.org/TR/2001/REC-SVG-20010904/DTD/svg10.dtd">
<svg version="1.0" xmlns="http://www.w3.org/2000/svg"
 width="238.000000pt" height="240.000000pt" viewBox="0 0 238.000000 240.000000"
 preserveAspectRatio="xMidYMid meet">

<g transform="translate(0.000000,240.000000) scale(0.100000,-0.100000)"
fill="#000000" stroke="none">
<path d="M0 1200 l0 -1200 1190 0 1190 0 0 1200 0 1200 -1190 0 -1190 0 0
-1200z m1869 293 c-25 -27 -60 -66 -79 -88 l-34 -40 -172 -5 -172 -5 -4 -357
c-2 -197 -7 -360 -10 -364 -4 -3 -29 -7 -57 -7 -28 -1 -51 -6 -51 -10 0 -5 -4
-6 -9 -2 -5 3 -12 1 -16 -5 -3 -5 -19 -10 -34 -10 -26 0 -29 -4 -37 -47 -6
-32 -11 94 -14 377 l-5 425 -442 3 -443 2 0 -190 c0 -104 0 -193 0 -197 0 -9
22 -10 375 -12 l275 -1 -71 -85 -71 -85 -254 0 c-139 0 -255 -4 -258 -8 -3 -5
-6 -65 -7 -134 -1 -99 -4 -125 -15 -125 -8 0 -14 5 -14 11 0 6 -4 5 -8 -2 -7
-9 -15 -10 -35 -3 -20 8 -27 7 -28 -2 0 -9 -2 -9 -6 1 -4 10 -8 10 -19 1 -9
-7 -14 -8 -14 -1 0 5 -9 8 -20 5 -11 -3 -20 0 -20 6 0 6 -7 11 -14 11 -13 0
-15 70 -16 495 l-1 495 923 0 922 0 -45 -47z m-1157 -1200 c-78 -2 -206 -2
-285 0 -78 1 -14 3 143 3 157 0 221 -2 142 -3z"/>
</g>
</svg>
