<?xml version="1.0" standalone="no"?>
<!DOCTYPE svg PUBLIC "-//W3C//DTD SVG 20010904//EN"
 "http://www.w3.org/TR/2001/REC-SVG-20010904/DTD/svg10.dtd">
<svg version="1.0" xmlns="http://www.w3.org/2000/svg"
 width="238.000000pt" height="240.000000pt" viewBox="0 0 238.000000 240.000000"
 preserveAspectRatio="xMidYMid meet">

<g transform="translate(0.000000,240.000000) scale(0.100000,-0.100000)"
fill="#000000" stroke="none">
<path d="M1226 2344 c-21 -21 -20 -31 7 -57 36 -33 235 -194 632 -511 198
-157 360 -291 360 -296 0 -5 -65 -69 -145 -141 -80 -73 -170 -155 -200 -183
-30 -28 -99 -91 -153 -139 -53 -49 -97 -95 -97 -103 0 -7 12 -21 26 -31 23
-14 29 -15 49 -2 48 30 635 594 635 611 0 10 -35 43 -84 80 -46 35 -218 171
-381 303 -563 456 -600 485 -617 485 -9 0 -24 -7 -32 -16z"/>
<path d="M52 2088 l3 -23 265 -3 c434 -5 1070 8 1070 23 0 13 -461 25 -1017
25 l-324 0 3 -22z"/>
<path d="M50 1831 c0 -45 -1 -45 588 -37 618 7 752 13 752 31 0 12 -553 25
-1092 25 -236 0 -248 -1 -248 -19z"/>
<path d="M57 1553 c-4 -3 -7 -334 -7 -735 l0 -728 26 -10 c14 -6 157 -10 333
-10 351 0 314 -9 414 98 29 30 71 73 95 95 23 22 40 42 38 44 -2 3 -137 5
-300 6 -182 1 -298 6 -303 12 -5 6 -7 40 -5 78 l4 67 322 0 c325 0 346 2 346
36 0 7 -7 20 -16 28 -13 14 -58 16 -335 16 l-319 0 0 80 0 80 233 0 c127 0
237 4 243 8 13 9 204 249 204 256 0 4 -153 6 -339 6 -187 0 -341 3 -343 8 -2
4 -2 71 0 150 l3 142 407 -2 407 -3 0 -587 c0 -464 3 -590 13 -600 8 -8 51
-14 122 -16 90 -4 115 -1 135 12 l25 16 0 590 0 590 158 0 159 0 85 103 c47
56 97 116 112 132 14 17 26 33 26 38 0 9 -723 7 -805 -3 -33 -4 113 -8 329 -9
l389 -1 -49 -52 c-27 -29 -63 -70 -79 -90 l-30 -37 -172 -3 -171 -3 -4 -355
c-4 -271 -8 -361 -18 -380 -7 -14 -15 -20 -17 -14 -4 12 -71 1 -105 -17 -11
-5 -27 -5 -42 1 -22 8 -25 6 -34 -28 -7 -26 -10 85 -11 374 -1 356 -3 413 -16
418 -8 3 -209 4 -445 3 l-431 -2 0 -195 0 -195 63 0 c377 -1 601 -7 586 -16
-9 -5 -45 -43 -78 -84 l-61 -75 -257 -2 -257 -3 -6 -135 c-3 -74 -7 -135 -8
-135 -1 -1 -96 2 -153 4 -22 1 -29 7 -37 34 -5 17 -9 247 -10 510 l-1 477 507
1 c280 1 495 5 478 9 -37 9 -989 13 -998 3z m655 -1260 c-78 -2 -206 -2 -285
0 -78 1 -14 3 143 3 157 0 221 -2 142 -3z"/>
</g>
</svg>
